<svg width="400" height="400" xmlns="http://www.w3.org/2000/svg"><defs><radialGradient cx="50%" cy="0%" fx="50%" fy="0%" r="81.561%" id="a"><stop stop-color="#F6490D" offset="0%"/><stop stop-color="#FF7D50" offset="100%"/></radialGradient></defs><path d="M200 0a204.013 204.013 0 016.443.102l.227.007c.993.033 1.985.072 2.974.12l.339.016a202.09 202.09 0 0112.668 1.024l.348.04c.669.076 1.336.155 2.003.239C323.66 13.852 400 98.01 400 200c0 101.99-76.34 186.148-174.996 198.452h-.002a200.289 200.289 0 01-15.02 1.303l-.338.017c-.99.047-1.98.086-2.974.119l-.227.007c-1.04.033-2.081.058-3.125.075h-.048c-.525.01-1.052.016-1.578.02L200 400a204.014 204.014 0 01-16.116-.64 201.08 201.08 0 01-6.553-.63l-.32-.037c-.671-.077-1.343-.157-2.013-.24C76.34 386.147 0 301.988 0 200S76.34 13.852 174.995 1.548h.003c.67-.084 1.342-.164 2.014-.241l.319-.036A200.67 200.67 0 01193.334.109l.218-.007c1.042-.033 2.085-.058 3.13-.075h.045C197.816.008 198.907 0 200 0zm-3.27 399.974c1.088.017 2.178.026 3.27.026zM175 52.074C104.056 63.976 50 125.675 50 200c0 74.324 54.056 136.023 124.998 147.926L175 52.074zM200 0l3.273.026C202.184.01 201.093 0 200 0z" fill="url(#a)" transform="rotate(180 200 200)" fill-rule="evenodd"/></svg>